<svg width="37" height="38" viewBox="0 0 37 38" fill="none" xmlns="http://www.w3.org/2000/svg">
<path fill-rule="evenodd" clip-rule="evenodd" d="M36.1003 14.6639C34.7416 13.8361 33.6795 12.5971 33.0666 11.125C33.3075 11.0658 33.5189 11.0115 33.6812 10.9622C33.7928 10.9265 33.8933 10.8622 33.9726 10.7756C34.0519 10.6891 34.1074 10.5832 34.1335 10.4686C34.4846 8.9945 34.7278 7.49663 34.8612 5.98694C34.8671 5.77638 34.8157 5.56819 34.7127 5.38471C34.6096 5.20124 34.4587 5.0494 34.2761 4.94551C29.369 2.07785 24.4226 0.394771 20.5431 0.0788851C16.9242 -0.256744 11.1419 0.409578 9.41606 3.35127C9.31772 3.51908 9.45047 3.71651 9.6324 3.64741C11.4763 2.89718 17.1652 2.36906 18.9746 4.02253C17.9912 4.91589 14.6624 8.11424 15.5327 9.68873C15.9703 10.4982 17.5929 10.0737 18.4829 8.49923C18.9769 7.63744 19.3102 6.69241 19.4663 5.71054C19.5732 9.5027 18.3556 13.213 16.0244 16.199C13.2562 19.9797 8.61459 21.2531 5.93486 19.6243C4.04184 18.4644 2.51758 16.1693 2.25207 13.1783C1.5377 14.5521 1.22411 16.1004 1.34735 17.6451C0.9855 17.2062 0.676849 16.7257 0.427884 16.2138C-0.776768 17.7981 0.516389 21.8898 4.85313 21.2482C2.53725 25.409 0.580309 32.5609 0.634395 37.7779H6.04303C6.73141 34.1304 8.9932 32.6941 13.0398 32.6152C12.3507 34.2595 11.9195 36.0011 11.7614 37.7779H17.5241C17.9617 34.9744 18.6992 32.931 19.6925 31.5293C19.2729 33.5852 19.0669 35.6793 19.0779 37.7779H24.5258C24.7127 30.5175 29.369 22.6894 26.2615 11.3718C27.7741 11.7124 29.337 11.7643 30.8687 11.5248C30.7703 12.9266 31.3604 14.6245 32.9338 15.2266C32.77 14.8706 32.7136 14.4743 32.7715 14.0865C33.8059 14.5863 34.9588 14.7863 36.1003 14.6639V14.6639ZM26.3058 6.11527C25.9741 6.11527 25.65 6.01656 25.3742 5.83162C25.0985 5.64668 24.8836 5.38382 24.7567 5.07628C24.6298 4.76874 24.5966 4.43032 24.6613 4.10384C24.726 3.77735 24.8857 3.47746 25.1202 3.24207C25.3547 3.00669 25.6534 2.84639 25.9787 2.78145C26.3039 2.71651 26.641 2.74984 26.9474 2.87723C27.2538 3.00462 27.5156 3.22034 27.6999 3.49712C27.8841 3.7739 27.9824 4.09931 27.9824 4.43219C27.9824 4.87857 27.8058 5.30667 27.4913 5.62231C27.1769 5.93795 26.7504 6.11527 26.3058 6.11527ZM32.3438 9.12113C32.135 9.34461 31.8718 9.5096 31.5802 9.59981C31.2885 9.69003 30.9785 9.70236 30.6806 9.63559C30.3828 9.56882 30.1074 9.42525 29.8817 9.21905C29.656 9.01284 29.4878 8.75113 29.3936 8.45974C29.3846 8.43446 29.3834 8.40704 29.3901 8.38106C29.3969 8.35508 29.4113 8.33176 29.4315 8.31415C29.4517 8.29654 29.4767 8.28547 29.5033 8.28238C29.5299 8.2793 29.5568 8.28435 29.5804 8.29686C30.0036 8.48492 30.443 8.63361 30.8933 8.74108C31.3443 8.83809 31.8039 8.88935 32.2651 8.89408C32.2907 8.89539 32.3154 8.90384 32.3365 8.91849C32.3576 8.93314 32.3742 8.9534 32.3844 8.977C32.3946 9.0006 32.3981 9.0266 32.3944 9.05206C32.3907 9.07752 32.3799 9.10144 32.3634 9.12113" fill="#FF7300"/>
<path fill-rule="evenodd" clip-rule="evenodd" d="M26.6449 3.37589H26.5122C26.5717 3.42187 26.6199 3.48092 26.6531 3.54851C26.6864 3.6161 26.7038 3.69044 26.7039 3.76581C26.7183 3.89672 26.6802 4.02798 26.5982 4.13072C26.5161 4.23347 26.3967 4.29928 26.2663 4.31368C26.1359 4.32808 26.0052 4.28989 25.9028 4.20751C25.8005 4.12512 25.7349 4.0053 25.7206 3.8744C25.6079 4.04755 25.5481 4.24999 25.5485 4.45681C25.5485 4.67353 25.6125 4.88538 25.7324 5.06557C25.8524 5.24576 26.0228 5.3862 26.2223 5.46914C26.4218 5.55207 26.6412 5.57377 26.853 5.53149C27.0647 5.48921 27.2592 5.38485 27.4119 5.23161C27.5645 5.07837 27.6685 4.88313 27.7106 4.67058C27.7527 4.45803 27.7311 4.23771 27.6485 4.0375C27.5659 3.83728 27.426 3.66615 27.2465 3.54575C27.067 3.42535 26.8559 3.36108 26.64 3.36108" fill="#FF7300"/>
</svg>
